<?xml version="1.0" encoding="utf-8"?><svg version="1.1" id="Layer_1" xmlns="http://www.w3.org/2000/svg" xmlns:xlink="http://www.w3.org/1999/xlink" x="0px" y="0px" viewBox="0 0 112.23 122.88" style="enable-background:new 0 0 112.23 122.88" xml:space="preserve"><style type="text/css">.st0{fill-rule:evenodd;clip-rule:evenodd;}</style><g><path class="st0" d="M20.87,17.38C24.23-0.95,46.97-6.1,56.1,8.33c9.72-13.24,32.21-9.67,34.55,7.7 c16.27,6.76,18.06,28.64,2.58,36.14c-9.97,8.53-18.35,11.08-13.57,15.53c0.24-1.18,0.48-2.41,0.72-3.67 c0.02-0.16,0.09-0.32,0.2-0.45c0.31-0.37,0.86-0.42,1.24-0.11l12.82,10.62l0,0c0.09,0.07,0.16,0.16,0.22,0.27 c0.22,0.43,0.05,0.95-0.38,1.17l-1.76,0.9c19.14,11.17,19.28,24.05,19.46,41.12c0.01,1.12,0.02,2.27,0.04,3.45 c0.01,0.06,0.01,0.12,0.01,0.18c0,0.95-0.84,1.72-1.89,1.72c-36.16,0-72.28,0-108.45,0c-1.04,0-1.89-0.77-1.89-1.72 c0-0.06,0-0.12,0.01-0.18c0.02-1.18,0.03-2.33,0.04-3.45c0.18-17.1,0.32-30.01,19.59-41.19l-1.61-0.82 c-0.43-0.22-0.6-0.74-0.38-1.17c0.06-0.11,0.13-0.2,0.22-0.27l0,0l12.82-10.62c0.37-0.31,0.93-0.26,1.24,0.11 c0.11,0.13,0.18,0.29,0.2,0.45c0.25,1.35,0.51,2.64,0.76,3.9c0.85-0.86,1.96-1.91,2.93-2.82L19,50.54l0,0 C7.74,41.11,8.43,25.31,20.87,17.38L20.87,17.38L20.87,17.38z M48.54,109.01l0.08-0.72c-10.06-14.1-14.68-25.49-17.97-42.54 L20,74.57c2.44,1.25,4.93,2.38,7.42,3.65c0.9,0.46,1.22,1.5,0.71,2.33c-0.68,1.1-4.54,4.15-5.73,5.21 C29.61,94.77,38.1,103.78,48.54,109.01L48.54,109.01z M47.16,121.16l1.17-10.28c-11.2-5.3-21.19-15.74-28.68-25.37 c-0.28-0.36-0.23-0.86,0.1-1.16l0,0l5.55-5.13l-3.78-1.93C0.89,88.87,2.18,102.52,1.89,121.16H47.16L47.16,121.16z M92.5,74.57 l-10.66-8.83C78.58,82.62,74.61,93,64.78,107.01l0.19,1.38c9.65-5.18,18.1-14.17,24.85-22.62c-0.84-0.75-8.53-5.73-5.01-7.54 C87.42,76.88,90.01,75.84,92.5,74.57L92.5,74.57z M110.34,121.16c-0.3-18.61,0.99-32.24-19.5-43.8l-3.64,1.85l5.55,5.13l0,0 c0.33,0.3,0.38,0.81,0.1,1.16c-7.47,9.6-16.69,19.17-27.63,24.8l1.46,10.85H110.34L110.34,121.16z M64.93,121.16L60.13,86 l5.98-8.44c-6.33,1.09-12.66,2.06-18.99,0L52.98,86l-4.07,35.17L64.93,121.16L64.93,121.16z M36.08,38.8l-4.32-0.09v16.03 c1.29,6.17,2.87,6.69,6.82,10.55l6.85,6.71c1.24,1.02,2.63,1.62,4.12,1.97c2.6,0.61,11.35,0.8,13.8,0.02 c1.49-0.48,2.89-1.36,4.19-2.73l4.98-4.83c4.81-4.67,8.07-6.68,7.72-14.4V38.71l-3.48,0.08c0.1,0.51,0.15,1.02,0.15,1.55 c0,2.49-1.01,4.74-2.64,6.37c-1.63,1.63-3.88,2.64-6.37,2.64c-2.49,0-4.74-1.01-6.37-2.64c-1.63-1.63-2.64-3.88-2.64-6.37 c0-0.14,0-0.28,0.01-0.43c-0.02-0.02-0.04-0.04-0.06-0.06c-1.52-1.78-3.22-1.84-4.8,0c-0.02,0.02-0.04,0.04-0.06,0.06 C53.99,40.05,54,40.2,54,40.34c0,2.49-1.01,4.74-2.64,6.37c-1.63,1.63-3.88,2.64-6.37,2.64c-2.49,0-4.74-1.01-6.37-2.64 c-1.63-1.63-2.64-3.88-2.64-6.37c-0.01-0.56,0.04-1.11,0.14-1.64L36.08,38.8L36.08,38.8L36.08,38.8z M31.76,36.77l4.92,0.09 c1.38-3.23,4.66-5.59,8.31-5.53c2.49,0,4.74,1.01,6.37,2.64c1.01,1.01,1.78,2.25,2.22,3.64c1.67-1.31,4.07-1.31,5.74,0 c0.44-1.39,1.21-2.63,2.22-3.64c1.63-1.63,3.88-2.64,6.37-2.64c3.57,0,6.82,2.35,8.25,5.52l4.09-0.08v-9.09 c-1.42-9.65-8.26-13.9-17.56-15.67c-5.49-1.04-10.84-1.15-16.22,0.5c-7.72,2.37-12.76,7.33-14.69,15.26V36.77L31.76,36.77 L31.76,36.77z M45.06,32.98c4.04,0,7.31,3.27,7.31,7.31c0,4.04-3.27,7.31-7.31,7.31c-4.04,0-7.31-3.27-7.31-7.31 C37.75,36.25,41.02,32.98,45.06,32.98L45.06,32.98z M67.9,47.63c-4.03,0-7.29-3.26-7.29-7.29c0-7.89,10.82-10.06,13.96-2.95 C76.52,41.94,73.46,47.63,67.9,47.63L67.9,47.63z M49.63,57.99c-1.08-0.24-2.13-0.53-3.15-0.87c-1.01-0.34-2-0.74-2.97-1.19 c-0.47-0.22-0.65-0.74-0.42-1.17c0.14-0.26,0.4-0.42,0.69-0.47v0c0.49-0.08,0.92-0.14,1.32-0.19c1.26-0.17,2.22-0.31,3.4-0.78 c0.33-0.13,0.65-0.28,0.97-0.43c1.86-0.86,3.9-1.8,5.94-0.19c0.18,0.14,0.34,0.29,0.48,0.44c0.14-0.15,0.3-0.3,0.48-0.44 c2.03-1.62,4.07-0.67,5.94,0.19c0.33,0.15,0.64,0.3,0.97,0.43c1.18,0.47,2.14,0.6,3.4,0.78c0.4,0.06,0.83,0.11,1.32,0.19l0,0 c0.29,0.05,0.55,0.21,0.69,0.47c0.24,0.43,0.05,0.95-0.42,1.17c-0.97,0.45-1.96,0.85-2.97,1.19c-1.02,0.34-2.07,0.64-3.15,0.87v0 C61.03,58.3,60,58.48,59.1,58.5c-1.03,0.02-1.93-0.17-2.64-0.64c-0.22-0.14-0.41-0.3-0.58-0.46c-0.17,0.16-0.36,0.32-0.58,0.46 c-0.71,0.47-1.6,0.67-2.63,0.64C51.76,58.48,50.74,58.3,49.63,57.99L49.63,57.99L49.63,57.99L49.63,57.99z M62.73,25.41 c-0.48-0.23-0.69-0.81-0.46-1.29c0.23-0.48,0.81-0.69,1.29-0.46l8.68,4.15c0.48,0.23,0.69,0.81,0.46,1.29 c-0.23,0.48-0.81,0.69-1.29,0.46L62.73,25.41L62.73,25.41z M48.81,23.66c0.48-0.23,1.06-0.02,1.29,0.46 c0.23,0.48,0.02,1.06-0.46,1.29l-8.68,4.15c-0.48,0.23-1.06,0.02-1.29-0.46c-0.23-0.48-0.02-1.06,0.46-1.29L48.81,23.66 L48.81,23.66z M53.43,49.18c-0.41-0.34-0.46-0.95-0.12-1.36c0.34-0.41,0.95-0.46,1.36-0.12c0.48,0.4,0.95,0.62,1.39,0.62 c0.45,0.01,0.93-0.2,1.46-0.63c0.41-0.34,1.02-0.28,1.36,0.13c0.34,0.41,0.28,1.02-0.13,1.36c-0.89,0.73-1.79,1.08-2.71,1.07 C55.12,50.24,54.25,49.88,53.43,49.18L53.43,49.18L53.43,49.18z M50.49,61.77c-0.39-0.21-0.54-0.7-0.33-1.09 c0.21-0.39,0.7-0.54,1.09-0.33c1.6,0.85,3.17,1.28,4.73,1.28c1.55,0,3.1-0.42,4.66-1.28c0.39-0.21,0.88-0.07,1.1,0.32 c0.21,0.39,0.07,0.88-0.32,1.1c-1.79,0.99-3.6,1.48-5.43,1.47C54.14,63.23,52.31,62.74,50.49,61.77L50.49,61.77L50.49,61.77z M81.7,49.86v-9.73c0.42-1.77,1.19-2.67,2.06-2.84C86.77,36.71,86.33,49.18,81.7,49.86L81.7,49.86z M30.25,49.86v-9.73 c-0.42-1.77-1.19-2.68-2.07-2.84C25.15,36.73,25.64,49.18,30.25,49.86L30.25,49.86z"/></g></svg>